# xmcd CD database file
#
# Track frame offsets:
#	150
#	24287
#	44255
#	65831
#	86228
#	101182
#	118875
#	143511
#	170731
#	190608
#	223242
#
# Disc length: 3202 seconds
#
# Revision: 1
# Processed by: cddbd v1.5.2PL0 Copyright (c) Steve Scherf et al.
# Submitted via: NeoAudio 9.9.9
#
DISCID=a40c800b
DTITLE=Tame Impala - InnerSpeaker
DYEAR=2010
DGENRE=
TTITLE0=It's Not To Meant To Be
TTITLE1=Desire Be, Desire Go
TTITLE2=Alter Ego
TTITLE3=Lucidity
TTITLE4=Why Won't You Make Up Your Mind
TTITLE5=Solitude Is Bliss
TTITLE6=Jeremy's Storm
TTITLE7=Expectation
TTITLE8=Bold Arrow Of Time, The
TTITLE9=Runaway, Houses, City, Clouds
TTITLE10=I Don't Really Mind
EXTD=YEAR: 2010
EXTT0=
EXTT1=
EXTT2=
EXTT3=
EXTT4=
EXTT5=
EXTT6=
EXTT7=
EXTT8=
EXTT9=
EXTT10=
PLAYORDER=
